<svg width="1757" height="1757" viewBox="0 0 1757 1757" fill="none" xmlns="http://www.w3.org/2000/svg">
<circle cx="878.5" cy="878.5" r="878.5" fill="url(#paint0_linear_3_5)"/>
<path d="M154 925.438H203.393L273.533 1040.14H273.999V925.438H310.36V1090.5H262.833L190.827 972.988H190.36V1090.5H154V925.438Z" fill="white"/>
<path d="M335.27 1033.86C335.27 1024.83 336.887 1016.68 340.153 1009.37C343.419 1002.05 347.867 995.797 353.559 990.6C359.22 985.404 365.904 981.389 373.589 978.588C381.274 975.788 389.481 974.387 398.16 974.387C406.868 974.387 415.053 975.788 422.731 978.588C430.417 981.389 437.101 985.404 442.762 990.6C448.424 995.797 452.908 1002.05 456.172 1009.37C459.437 1016.68 461.051 1024.83 461.051 1033.86C461.051 1042.88 459.437 1051.03 456.172 1058.35C452.908 1065.66 448.424 1071.92 442.762 1077.11C437.101 1082.31 430.417 1086.32 422.731 1089.12C415.053 1091.93 406.84 1093.33 398.16 1093.33C389.453 1093.33 381.274 1091.93 373.589 1089.12C365.904 1086.32 359.22 1082.34 353.559 1077.11C347.898 1071.92 343.419 1065.66 340.153 1058.35C336.918 1051.03 335.27 1042.85 335.27 1033.86ZM370.233 1033.86C370.233 1042.41 372.687 1049.32 377.573 1054.61C382.452 1059.9 389.326 1062.55 398.196 1062.55C407.058 1062.55 413.932 1059.9 418.811 1054.61C423.697 1049.32 426.158 1042.41 426.158 1033.86C426.158 1025.3 423.697 1018.39 418.811 1013.1C413.932 1007.81 407.058 1005.16 398.196 1005.16C389.326 1005.16 382.452 1007.81 377.573 1013.1C372.687 1018.39 370.233 1025.3 370.233 1033.86Z" fill="white"/>
<path d="M545.693 1010.52C540.56 1004.14 533.813 1000.96 525.416 1000.96C522.454 1000.96 519.599 1001.65 516.8 1003.05C514.001 1004.45 512.598 1006.84 512.598 1010.27C512.598 1013.07 514.029 1015.12 516.92 1016.46C519.782 1017.77 523.455 1018.95 527.869 1019.95C532.29 1020.97 537.049 1022.03 542.083 1023.21C547.124 1024.36 551.883 1026.2 556.297 1028.69C560.718 1031.18 564.384 1034.57 567.246 1038.84C570.109 1043.1 571.568 1048.82 571.568 1055.98C571.568 1063.3 569.982 1069.3 566.781 1074.06C563.608 1078.79 559.505 1082.62 554.555 1085.48C549.578 1088.35 543.98 1090.37 537.789 1091.55C531.571 1092.7 525.444 1093.29 519.38 1093.29C511.448 1093.29 503.453 1092.17 495.366 1089.9C487.279 1087.66 480.433 1083.65 474.87 1077.89L496.078 1054.33C499.35 1058.38 502.952 1061.43 506.908 1063.54C510.856 1065.66 515.488 1066.69 520.776 1066.69C524.823 1066.69 528.461 1066.1 531.726 1064.94C534.99 1063.79 536.612 1061.65 536.612 1058.53C536.612 1055.58 535.181 1053.37 532.29 1051.91C529.392 1050.44 525.754 1049.2 521.34 1048.17C516.92 1047.14 512.16 1046.09 507.126 1044.9C502.085 1043.75 497.326 1041.98 492.905 1039.64C488.492 1037.31 484.818 1034.01 481.963 1029.75C479.1 1025.49 477.634 1019.76 477.634 1012.6C477.634 1005.91 479.009 1000.15 481.709 995.362C484.417 990.538 487.991 986.586 492.44 983.474C496.861 980.362 501.958 978.09 507.712 976.597C513.472 975.134 519.282 974.387 525.197 974.387C532.656 974.387 540.186 975.477 547.808 977.655C555.43 979.833 561.867 983.723 567.155 989.324L545.693 1010.52Z" fill="white"/>
<path d="M666.631 1005.16H635.869V1042.94C635.869 1046.06 636.024 1048.89 636.335 1051.44C636.645 1053.99 637.329 1056.23 638.422 1058.1C639.507 1059.97 641.185 1061.4 643.427 1062.42C645.67 1063.45 648.68 1063.95 652.382 1063.95C654.25 1063.95 656.711 1063.76 659.728 1063.36C662.774 1062.98 665.044 1062.08 666.603 1060.68V1089.81C662.711 1091.21 658.671 1092.14 654.469 1092.61C650.266 1093.08 646.163 1093.33 642.123 1093.33C636.208 1093.33 630.765 1092.7 625.822 1091.46C620.845 1090.21 616.487 1088.22 612.758 1085.51C609.028 1082.81 606.13 1079.26 604.015 1074.9C601.9 1070.55 600.877 1065.26 600.877 1059.06V1005.16H578.513V977.188H600.877V943.61H635.834V977.188H666.603V1005.16H666.631Z" fill="white"/>
<path d="M684.356 977.188H719.312V995.362H719.778C723.514 988.36 727.928 983.132 733.061 979.615C738.194 976.13 744.631 974.356 752.408 974.356C754.431 974.356 756.455 974.45 758.471 974.574C760.495 974.73 762.363 975.041 764.076 975.508V1007.44C761.587 1006.66 759.127 1006.07 756.73 1005.69C754.34 1005.32 751.787 1005.1 749.171 1005.1C742.488 1005.1 737.2 1006.04 733.343 1007.9C729.451 1009.77 726.469 1012.38 724.382 1015.71C722.302 1019.04 720.934 1023.06 720.307 1027.73C719.686 1032.39 719.376 1037.53 719.376 1043.1V1090.43H684.419V977.188H684.356Z" fill="white"/>
<path d="M850.262 1076.27H849.797C845.912 1082.34 840.751 1086.7 834.307 1089.34C827.869 1091.99 821.059 1093.29 813.938 1093.29C808.65 1093.29 803.58 1092.55 798.666 1091.09C793.78 1089.62 789.458 1087.38 785.721 1084.46C781.992 1081.5 779.037 1077.86 776.859 1073.5C774.68 1069.15 773.594 1064.1 773.594 1058.35C773.594 1051.81 774.807 1046.3 777.204 1041.79C779.594 1037.28 782.866 1033.54 786.998 1030.59C791.108 1027.63 795.804 1025.33 801.092 1023.71C806.379 1022.09 811.851 1020.88 817.512 1020.1C823.174 1019.32 828.835 1018.86 834.525 1018.7C840.187 1018.55 845.446 1018.48 850.262 1018.48C850.262 1012.26 848.055 1007.34 843.642 1003.67C839.221 1000.03 833.968 998.194 827.905 998.194C822.144 998.194 816.92 999.407 812.161 1001.8C807.437 1004.23 803.207 1007.53 799.47 1011.7L780.842 992.592C787.371 986.524 794.965 981.981 803.672 978.961C812.379 975.943 821.369 974.419 830.704 974.419C840.962 974.419 849.395 975.694 855.987 978.277C862.579 980.829 867.867 984.626 871.823 989.574C875.771 994.552 878.542 1000.65 880.093 1007.87C881.651 1015.09 882.427 1023.46 882.427 1032.92V1090.49H850.262V1076.27ZM841.646 1040.83C839.002 1040.83 835.71 1040.95 831.761 1041.17C827.806 1041.39 823.985 1042.07 820.347 1043.16C816.701 1044.25 813.592 1045.87 811.012 1048.05C808.459 1050.23 807.155 1053.24 807.155 1057.13C807.155 1061.34 808.925 1064.45 812.506 1066.47C816.081 1068.49 819.818 1069.49 823.703 1069.49C827.122 1069.49 830.422 1069.02 833.595 1068.09C836.767 1067.15 839.594 1065.85 842.083 1064.14C844.572 1062.42 846.532 1060.25 848.027 1057.6C849.486 1054.96 850.234 1051.84 850.234 1048.26V1040.83H841.646Z" fill="white"/>
<path d="M1023.13 1090.49H990.97V1075.56H990.504C989.108 1077.58 987.268 1079.63 985.033 1081.75C982.791 1083.83 980.147 1085.76 977.101 1087.48C974.084 1089.19 970.728 1090.59 967.083 1091.68C963.444 1092.77 959.651 1093.33 955.795 1093.33C947.397 1093.33 939.804 1091.89 932.965 1089C926.119 1086.14 920.274 1082.09 915.36 1076.86C910.474 1071.67 906.709 1065.47 904.065 1058.32C901.428 1051.16 900.116 1043.32 900.116 1034.76C900.116 1026.82 901.329 1019.26 903.726 1012.04C906.124 1004.82 909.543 998.411 913.992 992.81C918.406 987.208 923.82 982.758 930.194 979.397C936.575 976.067 943.788 974.387 951.875 974.387C959.186 974.387 965.969 975.507 972.279 977.779C978.561 980.02 983.729 983.878 987.769 989.325H988.234V925H1023.2V1090.49H1023.13ZM990.97 1033.86C990.97 1025.3 988.516 1018.39 983.63 1013.1C978.751 1007.81 971.877 1005.16 963.007 1005.16C954.145 1005.16 947.27 1007.81 942.392 1013.1C937.505 1018.39 935.045 1025.3 935.045 1033.86C935.045 1042.41 937.505 1049.32 942.392 1054.61C947.27 1059.9 954.145 1062.55 963.007 1062.55C971.877 1062.55 978.751 1059.9 983.63 1054.61C988.544 1049.32 990.97 1042.38 990.97 1033.86Z" fill="white"/>
<path d="M1122.17 1076.27H1121.71C1117.82 1082.34 1112.66 1086.7 1106.22 1089.34C1099.78 1091.99 1092.96 1093.29 1085.84 1093.29C1080.55 1093.29 1075.48 1092.55 1070.57 1091.09C1065.68 1089.62 1061.36 1087.38 1057.63 1084.46C1053.9 1081.5 1050.94 1077.86 1048.77 1073.5C1046.59 1069.15 1045.5 1064.1 1045.5 1058.35C1045.5 1051.81 1046.71 1046.3 1049.11 1041.79C1051.51 1037.28 1054.77 1033.54 1058.91 1030.59C1063.01 1027.63 1067.71 1025.33 1073 1023.71C1078.28 1022.09 1083.76 1020.88 1089.42 1020.1C1095.08 1019.32 1100.74 1018.86 1106.44 1018.7C1112.1 1018.55 1117.35 1018.48 1122.17 1018.48C1122.17 1012.26 1119.97 1007.34 1115.55 1003.67C1111.13 1000.03 1105.87 998.194 1099.81 998.194C1094.06 998.194 1088.83 999.407 1084.07 1001.8C1079.34 1004.23 1075.11 1007.53 1071.38 1011.7L1052.75 992.592C1059.28 986.524 1066.87 981.981 1075.58 978.961C1084.29 975.943 1093.28 974.419 1102.61 974.419C1112.87 974.419 1121.3 975.694 1127.9 978.277C1134.49 980.829 1139.78 984.626 1143.73 989.574C1147.67 994.552 1150.45 1000.65 1152 1007.87C1153.56 1015.09 1154.33 1023.46 1154.33 1032.92V1090.49H1122.17V1076.27ZM1113.56 1040.83C1110.91 1040.83 1107.61 1040.95 1103.67 1041.17C1099.72 1041.39 1095.89 1042.07 1092.25 1043.16C1088.61 1044.25 1085.5 1045.87 1082.92 1048.05C1080.37 1050.23 1079.06 1053.24 1079.06 1057.13C1079.06 1061.34 1080.84 1064.45 1084.41 1066.47C1087.99 1068.49 1091.72 1069.49 1095.61 1069.49C1099.03 1069.49 1102.33 1069.02 1105.5 1068.09C1108.67 1067.15 1111.51 1065.85 1113.99 1064.14C1116.48 1062.42 1118.44 1060.25 1119.93 1057.6C1121.4 1054.96 1122.14 1051.84 1122.14 1048.26V1040.83H1113.56Z" fill="white"/>
<path d="M1176.24 977.188H1209.8V992.561H1210.26C1211.36 990.383 1212.91 988.204 1214.93 986.026C1216.95 983.848 1219.34 981.918 1222.14 980.206C1224.94 978.495 1228.11 977.095 1231.7 976.006C1235.27 974.917 1239.16 974.387 1243.36 974.387C1251.29 974.387 1258.32 976.006 1264.45 979.273C1270.57 982.541 1275.21 987.675 1278.32 994.646C1282.36 987.333 1287.25 982.136 1293 979.024C1298.75 975.912 1305.81 974.356 1314.22 974.356C1321.83 974.356 1328.24 975.632 1333.44 978.215C1338.63 980.767 1342.76 984.284 1345.78 988.702C1348.8 993.121 1350.98 998.349 1352.32 1004.32C1353.62 1010.3 1354.31 1016.71 1354.31 1023.56V1090.46H1319.35V1024.49C1319.35 1019.2 1318.23 1014.66 1315.96 1010.86C1313.72 1007.06 1309.7 1005.13 1303.95 1005.13C1299.9 1005.13 1296.51 1005.79 1293.81 1007.13C1291.1 1008.43 1288.93 1010.27 1287.28 1012.6C1285.63 1014.94 1284.48 1017.64 1283.79 1020.76C1283.08 1023.87 1282.74 1027.13 1282.74 1030.56V1090.46H1247.77V1030.59C1247.77 1028.57 1247.68 1026.08 1247.56 1023.12C1247.41 1020.16 1246.84 1017.36 1245.91 1014.72C1244.97 1012.07 1243.45 1009.83 1241.37 1007.97C1239.28 1006.1 1236.2 1005.16 1232.16 1005.16C1227.65 1005.16 1224.01 1005.97 1221.21 1007.62C1218.41 1009.24 1216.27 1011.42 1214.8 1014.16C1213.34 1016.87 1212.35 1019.95 1211.88 1023.37C1211.41 1026.79 1211.17 1030.37 1211.17 1034.11V1090.53H1176.2V977.188H1176.24Z" fill="white"/>
<path d="M1488.02 1090.49H1454.46V1075.12H1453.99C1452.74 1077.3 1451.16 1079.48 1449.2 1081.66C1447.27 1083.83 1444.88 1085.76 1442.11 1087.48C1439.31 1089.19 1436.13 1090.59 1432.56 1091.68C1428.98 1092.77 1425.09 1093.33 1420.9 1093.33C1412.03 1093.33 1404.84 1091.96 1399.34 1089.25C1393.83 1086.54 1389.54 1082.78 1386.53 1077.95C1383.51 1073.13 1381.48 1067.47 1380.46 1060.93C1379.43 1054.39 1378.93 1047.33 1378.93 1039.71V977.187H1413.9V1032.67C1413.9 1035.94 1414.02 1039.3 1414.23 1042.82C1414.45 1046.3 1415.17 1049.54 1416.32 1052.5C1417.47 1055.45 1419.28 1057.85 1421.67 1059.72C1424.07 1061.58 1427.52 1062.52 1432.03 1062.52C1436.54 1062.52 1440.18 1061.71 1442.98 1060.06C1445.78 1058.44 1447.92 1056.26 1449.39 1053.52C1450.85 1050.82 1451.84 1047.74 1452.31 1044.31C1452.77 1040.89 1452.99 1037.31 1452.99 1033.58V977.187H1487.96V1090.49H1488.02Z" fill="white"/>
<path d="M1576.79 1010.52C1571.65 1004.14 1564.9 1000.96 1556.51 1000.96C1553.55 1000.96 1550.69 1001.65 1547.89 1003.05C1545.09 1004.45 1543.69 1006.84 1543.69 1010.27C1543.69 1013.07 1545.12 1015.12 1548.01 1016.46C1550.87 1017.77 1554.55 1018.95 1558.96 1019.95C1563.38 1020.97 1568.14 1022.03 1573.18 1023.21C1578.22 1024.36 1582.98 1026.2 1587.39 1028.69C1591.81 1031.18 1595.48 1034.57 1598.34 1038.84C1601.2 1043.1 1602.67 1048.82 1602.67 1055.98C1602.67 1063.3 1601.08 1069.3 1597.87 1074.06C1594.7 1078.79 1590.6 1082.62 1585.65 1085.48C1580.68 1088.35 1575.07 1090.37 1568.89 1091.55C1562.66 1092.7 1556.54 1093.29 1550.47 1093.29C1542.54 1093.29 1534.55 1092.17 1526.46 1089.9C1518.37 1087.66 1511.53 1083.65 1505.96 1077.89L1527.18 1054.33C1530.44 1058.38 1534.05 1061.43 1538 1063.54C1541.95 1065.66 1546.58 1066.69 1551.87 1066.69C1555.92 1066.69 1559.55 1066.1 1562.82 1064.94C1566.08 1063.79 1567.7 1061.65 1567.7 1058.53C1567.7 1055.58 1566.27 1053.37 1563.38 1051.91C1560.48 1050.44 1556.85 1049.2 1552.43 1048.17C1548.01 1047.14 1543.25 1046.09 1538.22 1044.9C1533.18 1043.75 1528.42 1041.98 1524 1039.64C1519.58 1037.31 1515.92 1034.01 1513.06 1029.75C1510.19 1025.49 1508.73 1019.76 1508.73 1012.6C1508.73 1005.91 1510.1 1000.15 1512.8 995.362C1515.51 990.538 1519.09 986.586 1523.53 983.474C1527.95 980.362 1533.05 978.09 1538.81 976.597C1544.56 975.134 1550.38 974.387 1556.29 974.387C1563.76 974.387 1571.28 975.477 1578.9 977.655C1586.52 979.833 1592.96 983.723 1598.25 989.324L1576.79 1010.52Z" fill="white"/>
<path d="M1150.7 498.278H1150.54H1147.32L1055.3 498L1055.14 498.278H1015.78L874.187 757.028L806.807 634.579H672.049L539 879H641.878H1076.56L1218 620.528L1150.7 498.278ZM739.389 757.028L797.863 863.164H680.994L739.389 757.028ZM1067.1 863.164H950.471L1141.56 514.631L1199.87 620.568L1067.1 863.164Z" fill="white"/>
<defs>
<linearGradient id="paint0_linear_3_5" x1="878.5" y1="0" x2="878.5" y2="1757" gradientUnits="userSpaceOnUse">
<stop stop-color="#5488FE"/>
<stop offset="1" stop-color="#3F69FD"/>
</linearGradient>
</defs>
</svg>
